<svg width="319" height="320" viewBox="0 0 319 320" fill="none" xmlns="http://www.w3.org/2000/svg">
<path d="M159.492 318.932C247.305 318.932 318.492 247.745 318.492 159.932C318.492 72.1186 247.305 0.931885 159.492 0.931885C71.6784 0.931885 0.491699 72.1186 0.491699 159.932C0.491699 247.745 71.6784 318.932 159.492 318.932Z" fill="#2E3148"/>
<g filter="url(#filter0_d_16_41)">
<path d="M159.492 252.191C210.445 252.191 251.751 210.885 251.751 159.932C251.751 108.978 210.445 67.6725 159.492 67.6725C108.538 67.6725 67.2324 108.978 67.2324 159.932C67.2324 210.885 108.538 252.191 159.492 252.191Z" fill="#1B1E36"/>
</g>
<g filter="url(#filter1_d_16_41)">
<path d="M159.819 21.2165C146.564 21.2165 135.245 58.3453 130.777 110.626C129.46 126.041 128.739 142.774 128.739 160.26C128.739 179.123 129.578 197.11 131.1 213.511C135.772 263.879 146.871 299.304 159.819 299.304C176.982 299.304 190.899 237.052 190.899 160.26C190.899 83.4681 176.982 21.2165 159.819 21.2165ZM161.964 291.457C160.002 294.074 158.039 292.11 158.039 292.11C150.135 282.952 146.183 265.938 146.183 265.938C141.798 251.828 139.135 232.584 137.543 212.883C134.114 170.461 135.648 125.913 135.648 125.913C136.109 120.531 136.597 115.441 137.107 110.626C143.784 47.5991 154.25 31.8734 157.987 28.1781C158.398 27.7722 158.938 27.5241 159.514 27.4776C160.09 27.431 160.663 27.589 161.134 27.9237C166.97 32.059 171.864 49.3531 171.864 49.3531C186.318 103.007 185.009 153.39 185.009 153.39C186.318 197.229 177.767 246.303 177.767 246.303C171.184 283.598 161.964 291.457 161.964 291.457Z" fill="#6F7390"/>
</g>
<g filter="url(#filter2_d_16_41)">
<path fill-rule="evenodd" clip-rule="evenodd" d="M211.294 100.444C247.737 85.8952 274.924 81.481 280.423 91.0646C288.962 105.951 241.954 149.004 175.313 187.218C108.671 225.431 47.7476 244.334 39.2087 229.448C32.4526 217.67 60.4695 188.259 105.471 157.564L103.177 167.03C86.8397 178.236 71.4267 190.149 61.344 200.997C61.344 200.997 48.5732 212.893 44.56 224.304C44.56 224.304 43.821 226.993 47.0926 227.405H47.0938C47.0938 227.405 58.4922 231.495 94.1197 218.656C94.1197 218.656 140.942 201.664 178.317 178.704C178.317 178.704 222.673 154.763 261.993 115.51C261.993 115.51 274.59 102.663 275.244 95.5395C275.304 94.9631 275.158 94.3841 274.832 93.9049C274.506 93.4258 274.021 93.0775 273.463 92.9217C269.09 91.7179 254.375 90.6062 212.903 106.907L211.294 100.444ZM162.516 123.257C161.406 123.845 160.293 124.44 159.177 125.04L160.621 130.9L162.516 123.257Z" fill="#6F7390"/>
<path d="M103.177 167.03C138.248 142.974 177.578 122.178 177.578 122.178C191.101 115.886 202.796 110.88 212.903 106.907L211.294 100.444C196.311 106.425 179.764 114.119 162.516 123.257L160.621 130.9L159.177 125.04C154.269 127.679 149.31 130.433 144.319 133.295C130.405 141.274 117.347 149.463 105.471 157.564L103.177 167.03Z" fill="#6F7390"/>
<path d="M103.177 167.03C138.248 142.974 177.578 122.178 177.578 122.178C191.101 115.886 202.796 110.88 212.903 106.907L211.294 100.444C196.311 106.425 179.764 114.119 162.516 123.257L160.621 130.9L159.177 125.04C154.269 127.679 149.31 130.433 144.319 133.295C130.405 141.274 117.347 149.463 105.471 157.564L103.177 167.03Z" fill="#6F7390"/>
</g>
<g filter="url(#filter3_d_16_41)">
<path d="M280.122 229.944C288.733 215.091 241.843 171.84 175.436 133.339C109.029 94.8385 48.1191 75.6949 39.5153 90.5735C32.8045 102.179 59.8501 131.029 103.606 161.432C115.948 170.008 129.62 178.707 144.239 187.178C156.59 194.334 168.746 200.822 180.41 206.547C231.495 231.621 273.117 242.058 280.122 229.944ZM45.2215 96.3128C43.9495 93.2969 46.6347 92.5706 46.6347 92.5706C58.5228 90.3255 75.2216 95.4415 75.2216 95.4415C120.651 105.787 201.658 156.529 201.658 156.529C264.028 200.173 273.594 219.397 275.027 224.853C275.173 225.413 275.117 226.006 274.868 226.528C274.619 227.05 274.193 227.468 273.666 227.707C267.163 230.684 249.744 226.248 249.744 226.248C223.174 219.123 199.236 209.065 181.834 200.721C164.074 192.206 153.12 185.477 153.12 185.477C136.29 176.4 119.542 165.189 106.007 155.434C88.5177 142.829 76.3944 132.654 76.3944 132.654C47.4081 108.248 45.2304 96.3459 45.2304 96.3459L45.2215 96.3128Z" fill="#6F7390"/>
</g>
<g filter="url(#filter4_d_16_41)">
<path d="M226.559 106.931C231.799 106.931 236.047 102.537 236.047 97.1167C236.047 91.6962 231.799 87.302 226.559 87.302C221.319 87.302 217.071 91.6962 217.071 97.1167C217.071 102.537 221.319 106.931 226.559 106.931Z" fill="#B7B9C8"/>
</g>
<g filter="url(#filter5_d_16_41)">
<path d="M70.8306 140.302C76.0706 140.302 80.3185 135.908 80.3185 130.488C80.3185 125.067 76.0706 120.673 70.8306 120.673C65.5906 120.673 61.3428 125.067 61.3428 130.488C61.3428 135.908 65.5906 140.302 70.8306 140.302Z" fill="#B7B9C8"/>
</g>
<g filter="url(#filter6_d_16_41)">
<path d="M140.189 260.697C145.429 260.697 149.677 256.303 149.677 250.882C149.677 245.462 145.429 241.068 140.189 241.068C134.949 241.068 130.701 245.462 130.701 250.882C130.701 256.303 134.949 260.697 140.189 260.697Z" fill="#B7B9C8"/>
</g>
<g filter="url(#filter7_d_16_41)">
<path d="M177.428 203.083H143.467L169.155 99.5648H203.116L177.428 203.083Z" fill="#63E6CB"/>
<path d="M130.405 220.299H96.4436L122.132 116.782H156.093L130.405 220.299Z" fill="#5CBFF2"/>
<path d="M143.467 203.083H177.428L156.093 116.782H122.132L143.467 203.083Z" fill="#60F0FC"/>
<path d="M188.579 178.087H222.54L203.117 99.5648H169.155L188.579 178.087Z" fill="#60FCB1"/>
<path opacity="0.05" d="M186.208 168.54L163.688 121.596L169.155 99.5648L186.208 168.54Z" fill="black"/>
<path opacity="0.05" d="M139.184 185.757L116.665 138.813L122.132 116.782L139.184 185.757Z" fill="black"/>
</g>
<defs>
<filter id="filter0_d_16_41" x="57.2324" y="67.6725" width="204.519" height="204.519" filterUnits="userSpaceOnUse" color-interpolation-filters="sRGB">
<feFlood flood-opacity="0" result="BackgroundImageFix"/>
<feColorMatrix in="SourceAlpha" type="matrix" values="0 0 0 0 0 0 0 0 0 0 0 0 0 0 0 0 0 0 127 0" result="hardAlpha"/>
<feOffset dy="10"/>
<feGaussianBlur stdDeviation="5"/>
<feComposite in2="hardAlpha" operator="out"/>
<feColorMatrix type="matrix" values="0 0 0 0 0 0 0 0 0 0 0 0 0 0 0 0 0 0 0.25 0"/>
<feBlend mode="normal" in2="BackgroundImageFix" result="effect1_dropShadow_16_41"/>
<feBlend mode="normal" in="SourceGraphic" in2="effect1_dropShadow_16_41" result="shape"/>
</filter>
<filter id="filter1_d_16_41" x="118.739" y="21.2165" width="82.1602" height="298.087" filterUnits="userSpaceOnUse" color-interpolation-filters="sRGB">
<feFlood flood-opacity="0" result="BackgroundImageFix"/>
<feColorMatrix in="SourceAlpha" type="matrix" values="0 0 0 0 0 0 0 0 0 0 0 0 0 0 0 0 0 0 127 0" result="hardAlpha"/>
<feOffset dy="10"/>
<feGaussianBlur stdDeviation="5"/>
<feComposite in2="hardAlpha" operator="out"/>
<feColorMatrix type="matrix" values="0 0 0 0 0 0 0 0 0 0 0 0 0 0 0 0 0 0 0.25 0"/>
<feBlend mode="normal" in2="BackgroundImageFix" result="effect1_dropShadow_16_41"/>
<feBlend mode="normal" in="SourceGraphic" in2="effect1_dropShadow_16_41" result="shape"/>
</filter>
<filter id="filter2_d_16_41" x="28.2073" y="85.9764" width="263.217" height="168.557" filterUnits="userSpaceOnUse" color-interpolation-filters="sRGB">
<feFlood flood-opacity="0" result="BackgroundImageFix"/>
<feColorMatrix in="SourceAlpha" type="matrix" values="0 0 0 0 0 0 0 0 0 0 0 0 0 0 0 0 0 0 127 0" result="hardAlpha"/>
<feOffset dy="10"/>
<feGaussianBlur stdDeviation="5"/>
<feComposite in2="hardAlpha" operator="out"/>
<feColorMatrix type="matrix" values="0 0 0 0 0 0 0 0 0 0 0 0 0 0 0 0 0 0 0.25 0"/>
<feBlend mode="normal" in2="BackgroundImageFix" result="effect1_dropShadow_16_41"/>
<feBlend mode="normal" in="SourceGraphic" in2="effect1_dropShadow_16_41" result="shape"/>
</filter>
<filter id="filter3_d_16_41" x="28.4973" y="85.5282" width="262.644" height="169.462" filterUnits="userSpaceOnUse" color-interpolation-filters="sRGB">
<feFlood flood-opacity="0" result="BackgroundImageFix"/>
<feColorMatrix in="SourceAlpha" type="matrix" values="0 0 0 0 0 0 0 0 0 0 0 0 0 0 0 0 0 0 127 0" result="hardAlpha"/>
<feOffset dy="10"/>
<feGaussianBlur stdDeviation="5"/>
<feComposite in2="hardAlpha" operator="out"/>
<feColorMatrix type="matrix" values="0 0 0 0 0 0 0 0 0 0 0 0 0 0 0 0 0 0 0.25 0"/>
<feBlend mode="normal" in2="BackgroundImageFix" result="effect1_dropShadow_16_41"/>
<feBlend mode="normal" in="SourceGraphic" in2="effect1_dropShadow_16_41" result="shape"/>
</filter>
<filter id="filter4_d_16_41" x="207.071" y="87.302" width="38.9756" height="39.6295" filterUnits="userSpaceOnUse" color-interpolation-filters="sRGB">
<feFlood flood-opacity="0" result="BackgroundImageFix"/>
<feColorMatrix in="SourceAlpha" type="matrix" values="0 0 0 0 0 0 0 0 0 0 0 0 0 0 0 0 0 0 127 0" result="hardAlpha"/>
<feOffset dy="10"/>
<feGaussianBlur stdDeviation="5"/>
<feComposite in2="hardAlpha" operator="out"/>
<feColorMatrix type="matrix" values="0 0 0 0 0 0 0 0 0 0 0 0 0 0 0 0 0 0 0.25 0"/>
<feBlend mode="normal" in2="BackgroundImageFix" result="effect1_dropShadow_16_41"/>
<feBlend mode="normal" in="SourceGraphic" in2="effect1_dropShadow_16_41" result="shape"/>
</filter>
<filter id="filter5_d_16_41" x="51.3428" y="120.673" width="38.9756" height="39.6295" filterUnits="userSpaceOnUse" color-interpolation-filters="sRGB">
<feFlood flood-opacity="0" result="BackgroundImageFix"/>
<feColorMatrix in="SourceAlpha" type="matrix" values="0 0 0 0 0 0 0 0 0 0 0 0 0 0 0 0 0 0 127 0" result="hardAlpha"/>
<feOffset dy="10"/>
<feGaussianBlur stdDeviation="5"/>
<feComposite in2="hardAlpha" operator="out"/>
<feColorMatrix type="matrix" values="0 0 0 0 0 0 0 0 0 0 0 0 0 0 0 0 0 0 0.25 0"/>
<feBlend mode="normal" in2="BackgroundImageFix" result="effect1_dropShadow_16_41"/>
<feBlend mode="normal" in="SourceGraphic" in2="effect1_dropShadow_16_41" result="shape"/>
</filter>
<filter id="filter6_d_16_41" x="120.701" y="241.068" width="38.9756" height="39.6295" filterUnits="userSpaceOnUse" color-interpolation-filters="sRGB">
<feFlood flood-opacity="0" result="BackgroundImageFix"/>
<feColorMatrix in="SourceAlpha" type="matrix" values="0 0 0 0 0 0 0 0 0 0 0 0 0 0 0 0 0 0 127 0" result="hardAlpha"/>
<feOffset dy="10"/>
<feGaussianBlur stdDeviation="5"/>
<feComposite in2="hardAlpha" operator="out"/>
<feColorMatrix type="matrix" values="0 0 0 0 0 0 0 0 0 0 0 0 0 0 0 0 0 0 0.25 0"/>
<feBlend mode="normal" in2="BackgroundImageFix" result="effect1_dropShadow_16_41"/>
<feBlend mode="normal" in="SourceGraphic" in2="effect1_dropShadow_16_41" result="shape"/>
</filter>
<filter id="filter7_d_16_41" x="86.4436" y="99.5648" width="146.096" height="140.734" filterUnits="userSpaceOnUse" color-interpolation-filters="sRGB">
<feFlood flood-opacity="0" result="BackgroundImageFix"/>
<feColorMatrix in="SourceAlpha" type="matrix" values="0 0 0 0 0 0 0 0 0 0 0 0 0 0 0 0 0 0 127 0" result="hardAlpha"/>
<feOffset dy="10"/>
<feGaussianBlur stdDeviation="5"/>
<feComposite in2="hardAlpha" operator="out"/>
<feColorMatrix type="matrix" values="0 0 0 0 0 0 0 0 0 0 0 0 0 0 0 0 0 0 0.25 0"/>
<feBlend mode="normal" in2="BackgroundImageFix" result="effect1_dropShadow_16_41"/>
<feBlend mode="normal" in="SourceGraphic" in2="effect1_dropShadow_16_41" result="shape"/>
</filter>
</defs>
</svg>
